<?xml version="1.0" encoding="UTF-8" standalone="no"?>
<svg
   xmlns:dc="http://purl.org/dc/elements/1.1/"
   xmlns:cc="http://creativecommons.org/ns#"
   xmlns:rdf="http://www.w3.org/1999/02/22-rdf-syntax-ns#"
   xmlns:svg="http://www.w3.org/2000/svg"
   xmlns="http://www.w3.org/2000/svg"
   xmlns:sodipodi="http://sodipodi.sourceforge.net/DTD/sodipodi-0.dtd"
   xmlns:inkscape="http://www.inkscape.org/namespaces/inkscape"
   width="211.66661mm"
   height="103.8626mm"
   viewBox="0 0 211.66661 103.8626"
   version="1.1"
   id="svg152"
   inkscape:version="1.0.2 (e86c870879, 2021-01-15, custom)"
   sodipodi:docname="houston.svg">
  <defs
     id="defs146" />
  <sodipodi:namedview
     id="base"
     pagecolor="#ffffff"
     bordercolor="#666666"
     borderopacity="1.0"
     inkscape:pageopacity="0.0"
     inkscape:pageshadow="2"
     inkscape:zoom="1.8725004"
     inkscape:cx="399.99991"
     inkscape:cy="196.27581"
     inkscape:document-units="mm"
     inkscape:current-layer="layer2"
     inkscape:document-rotation="0"
     showgrid="false"
     inkscape:window-width="1920"
     inkscape:window-height="1017"
     inkscape:window-x="-8"
     inkscape:window-y="-8"
     inkscape:window-maximized="1" />
  <metadata
     id="metadata149">
    <rdf:RDF>
      <cc:Work
         rdf:about="">
        <dc:format>image/svg+xml</dc:format>
        <dc:type
           rdf:resource="http://purl.org/dc/dcmitype/StillImage" />
        <dc:title></dc:title>
      </cc:Work>
    </rdf:RDF>
  </metadata>
  <g
     inkscape:label="Layer 1"
     inkscape:groupmode="layer"
     id="layer1"
     transform="translate(230.75219,-102.90232)">
    <path
       style="fill:#000000;stroke-width:0.264583"
       d="m -230.75219,200.2977 v -6.46708 l 1.12448,-0.0814 1.12448,-0.0814 0.0802,-1.24546 0.0802,-1.24546 1.90419,-0.0774 1.9042,-0.0774 0.08,-1.38906 c 0.0575,-0.99923 0.18747,-1.38907 0.46302,-1.38907 0.31667,0 0.38305,-0.66253 0.38305,-3.82325 v -3.82325 l 1.52135,-0.0794 1.52135,-0.0794 0.1323,-12.30313 0.13229,-12.30313 3.69297,0.0733 c 2.03113,0.0403 3.76083,0.1831 3.84377,0.3173 0.0829,0.13421 0.98095,0.27982 1.99557,0.32358 l 1.84477,0.0796 0.0685,13.69219 c 0.0669,13.37278 0.0806,13.69219 0.58418,13.69219 0.46015,0 0.52398,0.22073 0.59294,2.05052 0.0715,1.89765 0.12165,2.05682 0.67258,2.13507 0.32742,0.0465 0.59531,0.25486 0.59531,0.46302 0,0.27048 0.3298,0.37847 1.15583,0.37847 h 1.15584 l 0.12328,-1.91823 c 0.0678,-1.05502 0.26206,-2.18612 0.43167,-2.51354 0.66228,-1.27847 0.77689,-1.56966 0.96675,-2.45608 0.10807,-0.50455 0.28805,-1.03642 0.39997,-1.18194 0.11191,-0.14552 0.2919,-0.67739 0.39996,-1.18194 0.1856,-0.86651 0.27762,-1.10443 0.92295,-2.38634 0.14553,-0.28907 0.26459,-0.70579 0.26459,-0.92605 0,-0.31942 0.37479,-0.40046 1.85208,-0.40046 1.65693,0 1.85208,-0.0541 1.85208,-0.51355 0,-0.28246 0.10557,-0.5788 0.2346,-0.65854 0.12902,-0.0797 0.31576,-0.57768 0.41497,-1.10652 0.0992,-0.52885 0.2913,-1.185 0.42687,-1.45813 0.13556,-0.27313 0.3574,-0.72006 0.49296,-0.99319 0.13557,-0.27313 0.32648,-0.923 0.42426,-1.44417 l 0.17776,-0.94757 1.89049,-0.0772 1.8905,-0.0772 0.23639,-1.12448 c 0.13001,-0.61847 0.33854,-1.12448 0.46338,-1.12448 0.12485,0 0.22699,-0.29063 0.22699,-0.64585 0,-0.35521 0.1087,-0.71302 0.24156,-0.79513 0.13286,-0.0821 0.32182,-0.6243 0.4199,-1.20486 0.0981,-0.58055 0.28704,-1.12274 0.4199,-1.20485 0.13286,-0.0821 0.24149,-0.35063 0.2414,-0.5967 -1.4e-4,-0.37628 0.26163,-0.44142 1.64658,-0.40975 1.64018,0.0375 1.64759,0.0412 1.85652,0.92605 0.11538,0.48861 0.31177,1.07088 0.43644,1.29394 0.12467,0.22306 0.31508,0.81837 0.42315,1.32291 0.10807,0.50455 0.27683,1.03642 0.37503,1.18195 0.0982,0.14552 0.40388,0.97895 0.67928,1.85208 0.2754,0.87312 0.62779,1.75435 0.78309,1.95828 0.17602,0.23114 0.31379,2.74713 0.36581,6.68047 l 0.0834,6.30968 0.90874,0.69312 c 0.83681,0.63827 0.90873,0.80582 0.90873,2.11694 0,1.34233 0.0378,1.4238 0.66146,1.4238 h 0.66146 v -4.61459 c 0,-2.68205 0.10701,-4.68073 0.25553,-4.77252 0.22883,-0.14143 1.70039,0.19713 4.17624,0.96082 l 0.85989,0.26524 v 5.13886 c 0,3.33308 0.0953,5.13886 0.2712,5.13886 0.14916,0 0.34264,-0.35719 0.42995,-0.79375 0.0873,-0.43656 0.26293,-0.79375 0.39026,-0.79375 0.12733,0 0.23151,-0.41672 0.23151,-0.92604 0,-0.89936 0.0296,-0.92605 1.02748,-0.92605 0.82136,0 1.05663,0.11149 1.17281,0.55579 0.31832,1.21724 0.71013,0.11608 0.71013,-1.99575 0,-1.97997 0.0535,-2.21647 0.52916,-2.34087 0.5099,-0.13333 0.52917,-0.36089 0.52917,-6.24856 v -6.11011 h 0.79375 c 0.60241,0 0.79375,-0.12074 0.79375,-0.50086 0,-0.66967 0.49446,-0.82206 2.66747,-0.82206 1.65406,0 1.83045,-0.051 1.83045,-0.52916 0,-0.29104 0.12708,-0.52917 0.28241,-0.52917 0.15608,0 0.21173,0.22269 0.12441,0.49784 -0.0997,0.31418 -0.009,0.55512 0.24675,0.65315 0.22262,0.0854 0.40476,0.39718 0.40476,0.69279 0,0.42 0.17233,0.53747 0.78849,0.53747 h 0.78849 l 0.0714,5.61996 0.0714,5.61997 0.79375,0.13668 0.79375,0.13668 0.0765,2.31315 c 0.0601,1.81746 0.15928,2.31314 0.46302,2.31314 0.26541,0 0.38657,0.29026 0.38657,0.92605 0,0.81139 0.0819,0.92604 0.66146,0.92604 h 0.66146 V 169.8554 c 0,-15.93379 0.048,-18.12395 0.39687,-18.12395 0.21828,0 0.39781,-0.14883 0.39894,-0.33073 0.004,-0.68364 1.41878,-0.99219 4.5486,-0.99219 h 3.12225 v 19.15398 c 0,16.31749 0.0557,19.17538 0.37636,19.29841 0.20699,0.0794 0.4289,0.41959 0.49313,0.75591 0.0642,0.33632 0.133,-0.0136 0.15282,-0.77757 0.0198,-0.76398 0.15509,-1.38906 0.30061,-1.38906 0.17137,0 0.26458,-3.27357 0.26458,-9.29155 v -9.29154 l 1.05834,-1.05833 c 0.85027,-0.85028 1.05833,-1.24926 1.05833,-2.02948 0,-0.53413 0.26789,-1.50239 0.59531,-2.15169 0.49816,-0.98788 0.73565,-1.19407 1.45521,-1.26345 0.47294,-0.0456 0.87363,-0.22419 0.89042,-0.39687 0.0168,-0.17268 0.0465,-0.48231 0.0661,-0.68807 0.0502,-0.5275 1.35126,-0.9016 2.43107,-0.69902 0.79507,0.14915 0.91184,0.27118 0.91184,0.95282 0,0.70518 0.0842,0.78196 0.8599,0.7838 0.72302,0.002 0.95466,0.16799 1.45521,1.0446 0.37761,0.66132 0.59531,1.48324 0.59531,2.24761 0,1.07014 0.11848,1.31208 1.05833,2.16118 l 1.05834,0.95614 v 7.37755 7.37755 h 0.79375 0.79375 v 2.77812 c 0,2.60174 0.0336,2.77813 0.52916,2.77813 0.51237,0 0.52917,-0.17639 0.52917,-5.55625 0,-5.37986 0.0168,-5.55625 0.52917,-5.55625 0.29104,0 0.52916,-0.11907 0.52916,-0.26459 0,-0.14552 0.59532,-0.26458 1.32292,-0.26458 0.7276,0 1.32292,0.11906 1.32292,0.26458 0,0.14552 0.59531,0.26459 1.32291,0.26459 h 1.32292 v 2.93518 c 0,2.71268 0.0401,2.94568 0.52916,3.07357 0.42764,0.11183 0.52917,0.3609 0.52917,1.29815 v 1.15976 h 1.32068 c 1.03413,0 1.39237,0.11482 1.65114,0.52917 0.23527,0.37673 0.61702,0.52917 1.32516,0.52917 h 0.99469 v -1.96274 c 0,-2.60064 0.0961,-2.79976 1.35122,-2.79976 h 1.03003 v -5.27003 c 0,-5.46733 0.0722,-6.10706 0.68976,-6.10706 0.20271,0 0.36857,-0.17859 0.36857,-0.39687 0,-0.30868 0.35278,-0.39688 1.5875,-0.39688 h 1.5875 v -4.7625 -4.7625 h 1.32292 c 0.99953,0 1.32291,-0.097 1.32291,-0.39687 0,-0.57182 3.05126,-0.57182 3.27069,0 0.10436,0.27198 0.52958,0.39687 1.35122,0.39687 h 1.19893 v 10.05417 10.05417 h 0.76544 c 0.45391,0 0.83081,0.17033 0.926043,0.41851 0.0883,0.23018 0.1606,1.83753 0.1606,3.57188 0,2.97697 0.0296,3.15336 0.52917,3.15336 0.38328,0 0.52916,-0.17639 0.52916,-0.63982 0,-1.03467 0.28048,-1.47685 0.93678,-1.47685 0.46843,0 0.64192,0.17393 0.7258,0.7276 0.0606,0.40019 0.12806,-0.55231 0.14986,-2.11666 0.0312,-2.23579 0.1185,-2.84427 0.40821,-2.84427 0.51487,0 0.68977,-0.59586 0.68977,-2.34998 0,-0.83211 0.14288,-1.65581 0.3175,-1.83044 0.17463,-0.17462 0.88481,-0.3175 1.57819,-0.3175 1.58084,0 1.80848,0.36415 1.80848,2.89302 v 1.86948 h 0.92604 0.92604 v -8.33437 c 0,-4.58391 0.0738,-8.33438 0.16397,-8.33438 0.0902,0 1.96119,-0.4222 4.15781,-0.93822 2.36083,-0.5546 4.4845,-0.90619 5.19384,-0.8599 l 1.20001,0.0783 0.1359,13.62605 c 0.0747,7.49432 0.16404,12.71304 0.19843,11.59716 0.0792,-2.5694 0.1981,-2.86591 1.14918,-2.86591 0.60047,0 0.76544,-0.1194 0.76544,-0.55394 0,-0.33142 0.21257,-0.60952 0.52917,-0.69232 0.29104,-0.0761 0.52917,-0.30309 0.52917,-0.50439 0,-0.21403 0.27467,-0.36602 0.66146,-0.36602 0.65695,0 0.66145,0.0163 0.66145,2.40065 0,2.14356 0.0496,2.3912 0.46302,2.3124 0.25467,-0.0485 0.50182,-0.36059 0.54922,-0.69346 0.0798,-0.56043 0.19731,-0.59939 1.587504,-0.52647 l 1.50131,0.0788 0.0745,3.10886 c 0.0798,3.32689 0.58691,4.41285 0.58691,1.25677 0,-1.05833 0.1134,-1.85208 0.26459,-1.85208 0.14552,0 0.26458,-0.46352 0.26458,-1.03003 0,-1.12175 0.27748,-1.35122 1.63391,-1.35122 0.57437,0 0.83552,0.14776 0.93526,0.52916 0.0896,0.34244 0.3609,0.52917 0.76898,0.52917 h 0.6306 v -6.20095 -6.20094 l 0.8599,-0.0829 0.85989,-0.0829 0.0723,-4.883 c 0.0398,-2.68564 0.16323,-4.94783 0.27433,-5.02708 0.1111,-0.0793 0.62537,-1.09659 1.14281,-2.26075 0.51744,-1.16417 1.0786,-2.10477 1.24702,-2.09021 0.16842,0.0146 0.72391,0.0443 1.23443,0.0662 0.88553,0.0379 0.97373,0.13396 1.91823,2.09021 0.54451,1.12778 1.07932,2.0902 1.18846,2.13871 0.10914,0.0485 0.19843,1.62609 0.19843,3.50573 v 3.41753 h 0.77211 c 1.52758,0 1.60914,0.12885 1.60914,2.54185 0,2.19231 0.008,2.22065 0.66146,2.22065 0.65268,0 0.66146,0.0293 0.66146,2.2063 0,4.89583 0.3626,13.40412 0.57124,13.40412 0.12238,0 0.22251,-1.905 0.22251,-4.23333 0,-3.58658 0.0606,-4.23333 0.39688,-4.23333 0.34114,0 0.39687,-0.84521 0.39688,-6.01928 l 10e-6,-6.01927 h 3.70416 3.70416 v 2.18282 c -1e-5,1.76389 0.0762,2.18281 0.39687,2.18281 0.34408,0 0.39687,1.0713 0.39687,8.05417 0,4.93101 0.0998,8.11583 0.25726,8.21317 0.16079,0.0994 0.2848,-1.25892 0.33072,-3.6224 l 0.0735,-3.7814 h 1.32292 1.32292 l 0.0773,2.05052 c 0.0682,1.81062 0.13606,2.05052 0.5797,2.05052 0.27633,0 0.57601,-0.11906 0.66594,-0.26458 0.2465,-0.39885 1.9693,-0.31746 2.40015,0.11339 0.20789,0.20789 0.37798,0.62461 0.37798,0.92604 0,0.44565 0.16617,0.54807 0.88919,0.54807 0.87509,0 0.89183,-0.022 1.05603,-1.38906 0.0918,-0.76399 0.16788,-1.97125 0.16914,-2.68282 0.002,-0.91989 0.1361,-1.39531 0.46532,-1.64522 0.54344,-0.41253 1.44199,-0.47268 1.79917,-0.12044 0.13825,0.13634 0.78714,0.28516 1.44198,0.33073 l 1.19063,0.0829 0.0734,3.77031 c 0.0477,2.44724 0.1724,3.77032 0.3555,3.77032 0.15515,0 0.34435,-0.23813 0.42046,-0.52917 0.0896,-0.34244 0.3609,-0.52917 0.76898,-0.52917 0.59517,0 0.6306,-0.0903 0.6306,-1.6064 0,-1.03943 0.13341,-1.7398 0.37798,-1.98437 0.43212,-0.43212 1.89071,-0.50957 2.13557,-0.11339 0.0899,0.14552 0.57321,0.26458 1.07394,0.26458 h 0.91043 v 2.24896 2.24896 h 1.45521 1.45521 v 6.48229 6.48229 H -124.91885 -230.75219 Z m 193.675007,3.29208 c 0,-1.23472 0.0441,-1.32292 0.66146,-1.32292 0.3638,0 0.66146,-0.11906 0.66146,-0.26458 0,-0.14699 -0.70556,-0.26458 -1.5875,-0.26458 -0.88195,0 -1.5875,0.11759 -1.5875,0.26458 0,0.14552 0.29765,0.26458 0.66146,0.26458 0.61736,0 0.66145,0.0882 0.66145,1.32292 0,0.72761 0.11907,1.32292 0.26459,1.32292 0.14552,0 0.26458,-0.59531 0.26458,-1.32292 z m 4.23333,1.05833 c 0,-0.14552 -0.41671,-0.26458 -0.92604,-0.26458 -0.50932,0 -0.92604,-0.11906 -0.92604,-0.26458 0,-0.14552 0.23813,-0.26459 0.52917,-0.26459 0.29104,0 0.52916,-0.11906 0.52916,-0.26458 0,-0.14552 -0.23812,-0.26458 -0.52916,-0.26458 -0.29104,0 -0.52917,-0.11906 -0.52917,-0.26459 0,-0.14552 0.42375,-0.26458 0.94166,-0.26458 0.56039,0 0.87545,-0.10712 0.77813,-0.26458 -0.0899,-0.14552 -0.63274,-0.26459 -1.20624,-0.26459 h -1.04272 v 1.32292 1.32292 h 1.19063 c 0.65484,0 1.19062,-0.11906 1.19062,-0.26459 z m 1.45958,-0.26869 0.56765,-0.53327 0.4826,0.53327 c 0.26543,0.29331 0.60397,0.53328 0.7523,0.53328 0.14833,0 -0.009,-0.29641 -0.34911,-0.65869 -0.58068,-0.6181 -0.59167,-0.68866 -0.17841,-1.14531 0.65787,-0.72694 0.53172,-0.96253 -0.24344,-0.45463 -0.64398,0.42195 -0.71346,0.42125 -1.19224,-0.012 -0.27963,-0.25306 -0.59521,-0.37332 -0.70128,-0.26725 -0.10608,0.10608 0.10301,0.42754 0.46464,0.71436 l 0.65751,0.52149 -0.59532,0.41873 c -0.56998,0.4009 -0.79605,0.88334 -0.41392,0.88334 0.0998,0 0.43682,-0.23998 0.74902,-0.53328 z m 4.15535,-0.26047 c 0.37315,0 0.74989,0.18614 0.83719,0.41364 0.0873,0.22751 0.27925,0.33916 0.42656,0.24812 0.22693,-0.14025 -1.13727,-2.51385 -1.44481,-2.51385 -0.11498,0 -1.46512,2.38478 -1.46512,2.58788 0,0.077 0.21774,-0.0571 0.48386,-0.29791 0.26612,-0.24084 0.78916,-0.43788 1.16232,-0.43788 z m -0.58784,-0.51355 c 0,-0.45838 0.46569,-0.54319 0.79617,-0.145 0.27209,0.32785 0.23271,0.39396 -0.23461,0.39396 -0.30886,0 -0.56156,-0.11203 -0.56156,-0.24896 z m 5.24309,0.4474 c 0.0792,-0.68819 0.0254,-0.7276 -0.99219,-0.7276 -0.62433,0 -1.0759,-0.12567 -1.0759,-0.29942 0,-0.1966 0.36345,-0.25067 1.05833,-0.15747 1.14382,0.15342 1.46735,-0.22412 0.4178,-0.48754 -1.07461,-0.26972 -1.60154,-0.0367 -1.69214,0.74825 -0.0791,0.68555 -0.0247,0.72534 0.99218,0.72534 0.62343,0 1.07591,0.12575 1.07591,0.299 0,0.19785 -0.40274,0.25359 -1.19062,0.16479 -0.65485,-0.0738 -1.19063,-0.0397 -1.19063,0.0758 0,0.33246 0.58473,0.49377 1.5875,0.43796 0.79825,-0.0444 0.93759,-0.15194 1.00976,-0.77914 z m -38.84518,-5.22552 c 0,-0.78573 0.0147,-0.79375 1.45521,-0.79375 1.44051,0 1.45521,0.008 1.45521,0.79375 0,0.52917 0.13229,0.79375 0.39688,0.79375 0.31498,0 0.39687,-0.38217 0.39687,-1.85208 0,-1.46991 -0.0819,-1.85209 -0.39687,-1.85209 -0.26459,0 -0.39688,0.26459 -0.39688,0.79375 0,0.78574 -0.0147,0.79375 -1.45521,0.79375 -1.44051,0 -1.45521,-0.008 -1.45521,-0.79375 0,-0.52916 -0.13229,-0.79375 -0.39687,-0.79375 -0.31498,0 -0.39688,0.38218 -0.39688,1.85209 0,1.46991 0.0819,1.85208 0.39688,1.85208 0.26458,0 0.39687,-0.26458 0.39687,-0.79375 z m 10.00036,-1.13538 0.0785,-1.79683 -2.19515,0.077 -2.19515,0.077 -0.0812,1.42367 c -0.12327,2.16199 -0.10149,2.18216 2.25998,2.09326 l 2.05453,-0.0773 z m -3.65036,0.077 v -1.32292 h 1.5875 1.5875 v 1.32292 1.32291 h -1.5875 -1.5875 z m 9.73553,-0.0661 c 0.0643,-1.46832 0.006,-1.78594 -0.33073,-1.78594 -0.32345,0 -0.40896,0.33193 -0.40896,1.5875 v 1.5875 h -1.32292 -1.32292 v -1.5875 c 0,-1.23472 -0.0882,-1.5875 -0.39687,-1.5875 -0.311,0 -0.39688,0.36258 -0.39688,1.6757 0,0.92163 0.0841,1.75979 0.18688,1.86257 0.10278,0.10278 1.02552,0.15239 2.05052,0.11024 l 1.86365,-0.0766 z m 5.7426,0.8599 v -0.92605 l -1.52136,-0.0794 c -1.30486,-0.0681 -1.52135,-0.15277 -1.52135,-0.59531 0,-0.44277 0.18767,-0.51596 1.32292,-0.51596 0.85254,0 1.32291,0.11289 1.32291,0.3175 0,0.24694 0.0706,0.24694 0.3175,0 0.57431,-0.57431 -0.16328,-0.87752 -1.93187,-0.79417 l -1.69292,0.0798 v 0.92604 0.92605 l 1.65365,0.0788 c 1.43688,0.0684 1.65364,0.14647 1.65364,0.59531 0,0.44972 -0.18824,0.51654 -1.4552,0.51654 -0.80037,0 -1.45521,-0.11906 -1.45521,-0.26458 0,-0.14552 -0.11907,-0.26459 -0.26459,-0.26459 -0.14552,0 -0.26458,0.24334 -0.26458,0.54076 0,0.50204 0.13733,0.53519 1.91823,0.46302 l 1.91823,-0.0777 z m 3.57187,-0.52917 v -1.5875 h 0.92605 c 0.50932,0 0.92604,-0.11906 0.92604,-0.26458 0,-0.15434 -0.88195,-0.26459 -2.11667,-0.26459 -1.23472,0 -2.11667,0.11025 -2.11667,0.26459 0,0.14552 0.35719,0.26458 0.79375,0.26458 h 0.79375 v 1.5875 c 0,1.23472 0.0882,1.5875 0.39688,1.5875 0.30868,0 0.39687,-0.35278 0.39687,-1.5875 z m 7.27605,-0.26458 v -1.7198 l -2.0937,-0.078 c -2.37593,-0.0886 -2.52623,0.0129 -2.53246,1.71006 -0.007,1.92228 0.0554,1.9698 2.47556,1.88391 l 2.1506,-0.0763 z m -3.83646,0 v -1.32292 h 1.5875 1.5875 v 1.32292 1.32291 h -1.5875 -1.5875 z m 6.35,0.52916 c 0,-0.7276 0.0726,-1.32291 0.16134,-1.32291 0.0887,0 0.8127,0.59531 1.60882,1.32291 0.79612,0.72761 1.55695,1.32292 1.69074,1.32292 0.1338,0 0.24326,-0.83344 0.24326,-1.85208 0,-2.14563 -0.46289,-2.5196 -0.58148,-0.46978 l -0.08,1.3823 -1.52416,-1.3823 c -0.83829,-0.76027 -1.64196,-1.38231 -1.78594,-1.38231 -0.14772,0 -0.26178,0.80696 -0.26178,1.85209 0,1.05833 0.11339,1.85208 0.26458,1.85208 0.14552,0 0.26459,-0.59531 0.26459,-1.32292 z"
       id="path184" />
  </g>
  <g
     inkscape:groupmode="layer"
     id="layer2"
     inkscape:label="Layer 2"
     transform="translate(230.75219,-102.90232)">
    <path
       style="fill:#000000;stroke-width:0.0732141"
       d="m -154.08068,126.3277 c -2.01087,-0.085 -4.76646,-0.29093 -5.0455,-0.37701 -0.13032,-0.0402 -0.25599,-0.10392 -0.27929,-0.14161 -0.14404,-0.23308 0.31346,-0.58335 1.04936,-0.80341 0.17243,-0.0515 0.28775,-0.11747 0.25625,-0.14645 -0.05,-0.046 -4.26035,-1.32904 -5.3707,-1.63662 -0.47877,-0.13263 -0.72492,-0.35255 -0.60632,-0.54172 0.0427,-0.0681 0.32136,-0.21548 0.61924,-0.32749 0.29788,-0.11201 0.82688,-0.33663 1.17556,-0.49917 0.48522,-0.22618 0.83739,-0.32871 1.50089,-0.43695 0.47681,-0.0778 0.95922,-0.14145 1.07201,-0.14146 0.16808,-1e-5 0.22543,-0.0495 0.31797,-0.27457 0.20768,-0.50506 0.79825,-0.97008 1.232,-0.97008 0.10273,0 0.56994,0.11614 1.03827,0.25809 0.46832,0.14196 0.86663,0.24296 0.88513,0.22446 0.0185,-0.0185 -0.10535,-0.0711 -0.27523,-0.11682 -0.40659,-0.10948 -0.97923,-0.67603 -1.10391,-1.09215 -0.0872,-0.29117 -0.12847,-0.32438 -0.88047,-0.70903 -1.11683,-0.57128 -1.44953,-1.00898 -1.12219,-1.47632 0.0625,-0.0892 0.161,-0.32177 0.21891,-0.51679 0.0579,-0.19501 0.17036,-0.41345 0.24989,-0.48541 0.0795,-0.072 0.19544,-0.3058 0.2576,-0.51964 0.12654,-0.43528 0.42433,-0.83781 0.61979,-0.83781 0.0709,0 0.26538,0.0988 0.43215,0.21964 0.41325,0.29935 0.53727,0.2832 0.72046,-0.0939 0.31865,-0.65587 0.80551,-1.03223 1.59123,-1.23008 0.18768,-0.0472 0.32379,-0.10338 0.30247,-0.1247 -0.0214,-0.0213 -0.3202,-0.12929 -0.66414,-0.23989 -0.34395,-0.11061 -0.67114,-0.2391 -0.72709,-0.28554 -0.14184,-0.11771 -4.11209,-8.0994 -4.20766,-8.45895 -0.13634,-0.513 -0.10041,-1.02923 0.0861,-1.23671 0.13977,-0.15549 0.28435,-0.20049 0.954,-0.29694 1.46714,-0.2113 2.41466,-0.12139 3.04741,0.28917 0.14482,0.094 0.79445,0.67599 1.44361,1.29338 0.64917,0.61739 2.39533,2.27896 3.88036,3.69239 1.48502,1.41342 3.02352,2.86306 3.41888,3.22142 0.88716,0.80413 1.3102,1.30994 1.63518,1.95511 0.19285,0.38284 0.27995,0.48915 0.37615,0.45914 0.4104,-0.12807 17.53106,-3.81083 22.16265,-4.76732 6.61855,-1.36683 7.39302,-1.48614 7.91576,-1.21946 0.2935,0.14973 0.89809,0.62553 1.79441,1.41216 l 0.4666,0.40949 1.68393,0.41047 c 2.54669,0.62078 3.88787,1.11127 4.99252,1.82586 0.95336,0.61674 1.33496,1.08143 1.33884,1.63039 0.003,0.34017 -0.37411,1.05412 -0.8035,1.52363 -0.77338,0.84565 -1.94918,1.51057 -3.88054,2.19448 -1.31647,0.46616 -2.42734,0.75968 -5.16414,1.36447 -2.51555,0.55589 -4.43365,1.02194 -7.09924,1.72491 -5.17943,1.36593 -7.79426,2.19038 -9.99373,3.151 -1.72463,0.75323 -3.15697,1.31008 -3.73392,1.45163 -0.98457,0.24156 -1.91018,0.34689 -6.1866,0.70397 -2.41606,0.20175 -4.95293,0.41498 -5.63749,0.47386 -1.63018,0.14021 -4.18747,0.18953 -5.9539,0.11484 z m -3.47051,-5.33227 c 0.69567,-0.0673 1.27224,-0.15526 1.28125,-0.19553 0.0231,-0.10313 -0.84644,-0.37767 -1.39588,-0.44072 -0.58819,-0.0675 -1.06001,0.0931 -1.26597,0.43084 -0.077,0.12624 -0.14008,0.25424 -0.14023,0.28444 -2.8e-4,0.0685 -0.009,0.0689 1.52083,-0.079 z m 3.18504,-0.19362 c 0.81425,-0.0594 2.51826,-0.15828 3.7867,-0.21986 3.10028,-0.1505 3.86393,-0.21177 7.32141,-0.58743 1.63085,-0.17719 3.82179,-0.39015 4.86874,-0.47325 2.54492,-0.20199 2.68949,-0.22378 5.60089,-0.84436 1.38924,-0.29612 5.02981,-1.0382 8.09016,-1.64907 3.06036,-0.61087 5.60546,-1.14451 5.6558,-1.18586 0.0504,-0.0413 0.0915,-0.16575 0.0915,-0.27644 0,-0.19998 -0.004,-0.2015 -0.58646,-0.23522 -0.4842,-0.028 -0.61792,-0.0635 -0.76691,-0.20348 -0.28279,-0.26568 -0.44074,-0.76789 -0.43779,-1.3921 0.003,-0.70621 0.17133,-1.07535 0.58312,-1.28125 0.27499,-0.13749 0.48036,-0.14866 3.36589,-0.18304 l 3.07302,-0.0366 0.0521,-0.30556 c 0.0932,-0.54636 0.43096,-1.07618 0.88814,-1.39301 0.33083,-0.22926 0.30824,-0.25116 -0.401,-0.38888 -0.47515,-0.0923 -0.59731,-0.17246 -1.53712,-1.00897 -0.37516,-0.33393 -0.85911,-0.72928 -1.07544,-0.87857 -0.3598,-0.2483 -0.43061,-0.26979 -0.83088,-0.25225 -0.91211,0.04 -10.6085,2.05366 -24.95928,5.18339 -2.48164,0.54121 -4.56184,0.98403 -4.62266,0.98403 -0.0652,0 -0.21426,-0.21773 -0.36333,-0.5308 -0.36534,-0.76723 -0.99921,-1.51839 -2.11467,-2.50593 -0.53905,-0.47724 -2.1991,-2.02523 -3.68901,-3.43999 -1.48991,-1.41476 -3.09417,-2.93751 -3.56503,-3.38388 -1.06796,-1.01241 -1.31966,-1.14367 -2.26738,-1.18237 -0.9558,-0.039 -2.09382,0.14741 -2.28447,0.37427 -0.25547,0.30398 -0.13396,0.83245 0.51097,2.22244 0.96351,2.07656 3.32492,6.78849 3.49346,6.9708 0.22167,0.23977 0.60313,0.42214 1.25976,0.60229 0.36127,0.0991 0.65195,0.13753 0.81255,0.1074 0.13753,-0.0258 0.8719,-0.092 1.63194,-0.14714 1.79078,-0.12989 2.55402,-0.0397 3.73668,0.44138 0.64824,0.26372 1.46747,0.68141 1.4651,0.747 -0.001,0.0297 -0.19489,0.19115 -0.43071,0.35879 -0.78234,0.55617 -1.01196,1.05497 -1.08439,2.35572 -0.0377,0.67764 -0.0583,0.764 -0.19603,0.82414 -0.30622,0.13368 -5.86178,1.30612 -6.20339,1.30916 -0.10581,0.001 -0.22678,0.0431 -0.26884,0.0938 -0.0855,0.10304 -0.20892,1.51858 -0.13239,1.51858 0.0268,0 0.71497,-0.0485 1.52922,-0.10791 z m 5.48422,-3.31014 c 0.0219,-0.26596 0.0352,-0.27926 0.27926,-0.27926 0.24405,0 0.25625,0.0122 0.25625,0.25625 0,0.24405 -0.0133,0.25735 -0.27925,0.27925 l -0.27926,0.023 z m 1.20664,0.002 c -0.0268,-0.0269 -0.0488,-0.15863 -0.0488,-0.29286 0,-0.23591 0.01,-0.24404 0.29286,-0.24404 0.28412,0 0.29285,0.007 0.29285,0.24841 0,0.15899 -0.0417,0.26442 -0.11581,0.29286 -0.15291,0.0587 -0.3602,0.0565 -0.42109,-0.004 z m 2.10471,-0.4903 c -0.023,-0.06 -0.0311,-0.1857 -0.0178,-0.27923 0.0197,-0.13895 0.0752,-0.17426 0.30334,-0.19306 l 0.27926,-0.023 -0.023,0.27925 c -0.0211,0.25603 -0.0428,0.28117 -0.26145,0.30224 -0.15991,0.0154 -0.25226,-0.013 -0.28035,-0.0862 z m 2.13694,-0.40064 c -0.0208,-0.0336 -0.0123,-0.15721 0.0188,-0.27456 0.0455,-0.17139 0.10248,-0.21788 0.28974,-0.23631 0.22754,-0.0224 0.23312,-0.0158 0.23312,0.27455 0,0.29022 -0.006,0.29749 -0.25193,0.29749 -0.13856,0 -0.26894,-0.0275 -0.28974,-0.0612 z m 1.61548,-0.28049 c -0.0268,-0.0269 -0.0488,-0.15506 -0.0488,-0.28492 0,-0.19192 0.0349,-0.24486 0.1864,-0.28289 0.10253,-0.0257 0.21784,-0.0274 0.25625,-0.004 0.11835,0.0731 0.0821,0.52664 -0.046,0.5758 -0.15142,0.0581 -0.28711,0.0564 -0.34788,-0.004 z m 2.36726,-0.7519 c 0,-0.29215 0.005,-0.2975 0.26067,-0.2975 0.25645,0 0.2603,0.004 0.23794,0.27456 -0.0207,0.25065 -0.0434,0.27654 -0.26066,0.29749 -0.23318,0.0225 -0.23795,0.017 -0.23795,-0.27455 z m 2.43437,-0.27279 c -0.0503,-0.0203 -0.0915,-0.14686 -0.0915,-0.28125 0,-0.2115 0.0293,-0.25075 0.21786,-0.29217 0.11982,-0.0263 0.25161,-0.027 0.29285,-0.002 0.11856,0.0733 0.0936,0.55021 -0.0288,0.55021 -0.0571,0 -0.14771,0.0139 -0.20133,0.0308 -0.0536,0.0169 -0.13869,0.0142 -0.18903,-0.006 z m 1.59241,-0.6432 v -0.33329 h 0.40689 0.40689 l -0.0225,0.31115 -0.0225,0.31117 -0.38437,0.0221 -0.38438,0.0221 z m 2.41607,-0.50702 v -0.32014 l 0.38437,-0.0378 c 0.2114,-0.0208 0.40909,-0.023 0.43928,-0.005 0.0302,0.018 0.0549,0.17909 0.0549,0.35792 v 0.32515 h -0.43929 -0.43928 v -0.32015 z m 2.41607,-0.51654 v -0.32419 l 0.39713,-0.0496 c 0.21843,-0.0273 0.43258,-0.0277 0.47589,-8.2e-4 0.0433,0.0268 0.0788,0.17498 0.0788,0.32937 0,0.32615 -0.0696,0.36958 -0.59171,0.36958 h -0.36007 z m 2.06683,-0.0241 c -0.0508,-0.0169 -0.0901,-0.15493 -0.0901,-0.31677 v -0.28675 h 0.33388 0.33389 l -0.0227,0.27195 c -0.0198,0.23672 -0.0514,0.27776 -0.24383,0.31678 -0.12161,0.0246 -0.26163,0.0313 -0.31116,0.0148 z m 2.35453,-0.70802 c -0.0914,-0.23806 0.005,-0.44305 0.22773,-0.48537 0.33203,-0.0631 0.40268,-0.01 0.40268,0.30484 0,0.28409 -0.001,0.28503 -0.29516,0.28503 -0.18813,0 -0.30968,-0.0379 -0.33525,-0.1045 z m 2.46076,-0.76156 c 0,-0.26973 0.0157,-0.29107 0.23795,-0.32399 0.35802,-0.053 0.43167,0.002 0.40654,0.30249 -0.0214,0.25563 -0.0334,0.26605 -0.33332,0.28775 l -0.31117,0.0225 z m 4.97857,-1.96803 c -0.20607,-0.0758 -0.36607,-0.26337 -0.36607,-0.42922 0,-0.28844 0.27691,-0.83453 0.4554,-0.8981 0.29485,-0.105 0.85241,-0.0143 0.97334,0.15837 0.0895,0.12778 0.10875,0.1334 0.10875,0.0317 0,-0.26798 0.56485,-0.36539 0.95346,-0.16443 0.18145,0.0938 0.2079,0.0947 0.17372,0.006 -0.0614,-0.16012 0.22487,-0.27645 0.53947,-0.2192 0.35295,0.0642 0.84795,0.29469 1.00451,0.46769 0.0675,0.0746 0.11186,0.21248 0.0986,0.3064 -0.021,0.14856 -0.0709,0.17374 -0.38302,0.19354 -0.3039,0.0193 -0.40661,-0.0115 -0.67089,-0.20134 -0.17164,-0.12326 -0.32568,-0.22411 -0.34233,-0.22411 -0.0166,0 -0.016,0.0972 0.002,0.216 0.0268,0.18226 -0.007,0.23939 -0.21402,0.36586 -0.48022,0.29288 -0.99951,0.28705 -1.14404,-0.0128 l -0.0802,-0.16633 -0.005,0.16473 c -0.009,0.28545 -0.25557,0.4583 -0.64558,0.45181 -0.19128,-0.003 -0.39719,-0.0239 -0.45759,-0.0462 z m -37.48566,9.75884 c 0,-0.13764 0.02,-0.30238 0.0445,-0.36607 0.0336,-0.0877 -0.003,-0.11581 -0.14993,-0.11581 -0.11327,0 -0.26513,-0.0764 -0.36399,-0.18304 -0.17728,-0.19129 -0.62873,-0.26162 -0.62873,-0.0979 0,0.18093 0.38877,0.73624 0.60979,0.87101 0.35709,0.21774 0.48842,0.18867 0.48842,-0.10814 z m 3.11161,-1.31546 c 1.2483,-0.26058 2.57404,-0.54203 2.9461,-0.62545 0.37204,-0.0834 0.69327,-0.15168 0.71383,-0.15168 0.0206,0 0.038,-0.17297 0.0388,-0.38438 0.002,-0.52323 0.12328,-1.33559 0.26272,-1.75941 0.14436,-0.43875 0.36548,-0.70375 0.84281,-1.01005 l 0.37446,-0.24029 -0.57599,-0.29071 c -1.53711,-0.77579 -2.08517,-0.86083 -4.38313,-0.68014 -2.42535,0.1907 -3.35392,0.50424 -3.82811,1.29261 -0.65267,1.08507 -0.65256,2.13504 2.7e-4,3.83295 l 0.2221,0.57755 0.55818,-0.0436 c 0.30701,-0.024 1.57953,-0.25682 2.82783,-0.51739 z m -3.80925,0.11974 c -0.34812,-0.82016 -0.49904,-1.42397 -0.53159,-2.12689 l -0.035,-0.75411 -0.22818,0.0455 c -0.72242,0.14394 -1.12037,0.27327 -1.22489,0.39807 -0.065,0.0776 -0.13962,0.30306 -0.16589,0.50106 -0.029,0.21864 -0.1048,0.41162 -0.19302,0.49147 -0.18031,0.16317 -0.18696,0.41443 -0.0151,0.56996 0.11632,0.10526 0.77487,0.49193 1.47771,0.86763 0.14752,0.0788 0.40321,0.13546 0.61185,0.13546 0.31326,0 0.35157,-0.0161 0.30404,-0.12812 z m -2.34733,-1.08007 c -0.0567,-0.22602 0.0693,-0.40569 0.19582,-0.27917 0.1,0.1 0.0599,0.40459 -0.0584,0.44353 -0.0488,0.0161 -0.11068,-0.0579 -0.13741,-0.16436 z m 0.48399,-0.0336 c -0.1008,-0.18835 -0.0513,-0.36889 0.10108,-0.36889 0.16044,0 0.2259,0.2886 0.0951,0.41938 -0.0981,0.0981 -0.11962,0.0926 -0.19619,-0.0505 z m 0.43778,-0.22246 c 0,-0.18 0.028,-0.22499 0.12812,-0.20571 0.0808,0.0156 0.12812,0.0915 0.12812,0.20571 0,0.1142 -0.0473,0.19014 -0.12812,0.2057 -0.1001,0.0193 -0.12812,-0.0257 -0.12812,-0.2057 z m 0.48809,0.0976 c -0.0607,-0.0607 -0.0642,-0.35064 -0.005,-0.40983 0.0992,-0.0992 0.24909,0.0494 0.24909,0.24683 0,0.19918 -0.12462,0.28242 -0.24404,0.163 z m -0.0426,-1.81939 c 0.3796,-0.0547 0.60239,-0.16889 0.44987,-0.23059 -0.0512,-0.0207 -0.24236,-0.11703 -0.42485,-0.21407 -0.1825,-0.097 -0.34569,-0.17642 -0.36267,-0.17642 -0.0417,0 -0.2229,0.36123 -0.28968,0.57738 -0.0482,0.15602 -0.0355,0.17028 0.11885,0.13338 0.0951,-0.0227 0.32388,-0.0631 0.50848,-0.0897 z"
       id="path168" />
  </g>
</svg>
